<svg width="18" height="18" viewBox="0 0 18 18" fill="none" xmlns="http://www.w3.org/2000/svg">
<g clip-path="url(#clip0_25_529)">
<path d="M15.75 9H16.5M13.875 4.125L14.625 3.375M9 2.25V1.5M4.125 4.125L3.375 3.375M2.25 9H1.5M7.5 16.5H10.5M12.75 9C12.7498 8.32396 12.5669 7.66054 12.2205 7.07995C11.8742 6.49936 11.3774 6.02319 10.7826 5.70184C10.1878 5.38048 9.5172 5.22588 8.84176 5.25441C8.16632 5.28293 7.51116 5.49352 6.94559 5.86389C6.38003 6.23425 5.9251 6.75061 5.62896 7.35834C5.33281 7.96606 5.20645 8.64254 5.26326 9.31619C5.32007 9.98984 5.55794 10.6356 5.95168 11.1852C6.34542 11.7347 6.8804 12.1676 7.5 12.438V14.25H10.5V12.438C11.1689 12.1461 11.7381 11.6653 12.1378 11.0546C12.5374 10.4439 12.7502 9.72985 12.75 9Z" stroke="black" stroke-width="2" stroke-linecap="round" stroke-linejoin="round"/>
</g>
<defs>
<clipPath id="clip0_25_529">
<rect width="18" height="18" fill="white"/>
</clipPath>
</defs>
</svg>
