<svg width="28" height="28" viewBox="0 0 28 28" fill="none" xmlns="http://www.w3.org/2000/svg">
<path d="M14 0C11.2311 0 8.52431 0.821086 6.22202 2.35942C3.91973 3.89776 2.12532 6.08426 1.06569 8.64243C0.006066 11.2006 -0.271181 14.0155 0.269012 16.7313C0.809205 19.447 2.14258 21.9416 4.10051 23.8995C6.05845 25.8574 8.55301 27.1908 11.2687 27.731C13.9845 28.2712 16.7994 27.9939 19.3576 26.9343C21.9157 25.8747 24.1022 24.0803 25.6406 21.778C27.1789 19.4757 28 16.7689 28 14C27.9959 10.2882 26.5196 6.72967 23.8949 4.10505C21.2703 1.48044 17.7118 0.00411733 14 0ZM14 24.8889C11.8464 24.8889 9.74113 24.2503 7.95046 23.0538C6.15979 21.8573 4.76414 20.1567 3.93998 18.167C3.11583 16.1773 2.90019 13.9879 3.32034 11.8757C3.74049 9.76344 4.77756 7.82323 6.3004 6.30039C7.82324 4.77755 9.76345 3.74049 11.8757 3.32034C13.9879 2.90019 16.1773 3.11582 18.167 3.93998C20.1567 4.76413 21.8573 6.15979 23.0538 7.95046C24.2503 9.74112 24.8889 11.8464 24.8889 14C24.8858 16.887 23.7376 19.6548 21.6962 21.6962C19.6548 23.7376 16.887 24.8858 14 24.8889ZM7.25926 11.4074C7.25926 10.9972 7.38091 10.5962 7.60881 10.2551C7.83671 9.91403 8.16064 9.64819 8.53962 9.49121C8.91861 9.33423 9.33564 9.29315 9.73797 9.37318C10.1403 9.45321 10.5099 9.65075 10.7999 9.94081C11.09 10.2309 11.2875 10.6004 11.3676 11.0028C11.4476 11.4051 11.4065 11.8221 11.2495 12.2011C11.0925 12.5801 10.8267 12.904 10.4856 13.1319C10.1446 13.3598 9.74355 13.4815 9.33334 13.4815C8.78326 13.4815 8.25571 13.263 7.86675 12.874C7.47778 12.485 7.25926 11.9575 7.25926 11.4074ZM20.7407 11.4074C20.7407 11.8176 20.6191 12.2186 20.3912 12.5597C20.1633 12.9008 19.8394 13.1666 19.4604 13.3236C19.0814 13.4806 18.6644 13.5217 18.262 13.4416C17.8597 13.3616 17.4901 13.1641 17.2001 12.874C16.91 12.5839 16.7125 12.2144 16.6324 11.812C16.5524 11.4097 16.5935 10.9927 16.7505 10.6137C16.9075 10.2347 17.1733 9.91078 17.5144 9.68288C17.8555 9.45497 18.2565 9.33333 18.6667 9.33333C19.2167 9.33333 19.7443 9.55185 20.1333 9.94081C20.5222 10.3298 20.7407 10.8573 20.7407 11.4074ZM20.3181 18.7963C20.5441 19.1317 20.6305 19.5419 20.5592 19.9399C20.4878 20.338 20.2642 20.6926 19.9359 20.9286C19.6075 21.1646 19.2001 21.2634 18.8001 21.2042C18.4 21.1449 18.0388 20.9322 17.793 20.6111C17.361 20.0084 16.7916 19.5173 16.132 19.1786C15.4724 18.8398 14.7415 18.6631 14 18.6631C13.2585 18.6631 12.5276 18.8398 11.868 19.1786C11.2084 19.5173 10.639 20.0084 10.207 20.6111C9.96119 20.9322 9.59996 21.1449 9.19994 21.2042C8.79991 21.2634 8.39253 21.1646 8.06415 20.9286C7.73577 20.6926 7.5122 20.338 7.44084 19.9399C7.36947 19.5419 7.45592 19.1317 7.68186 18.7963C8.40202 17.7932 9.35068 16.9759 10.4494 16.4122C11.548 15.8485 12.7651 15.5545 14 15.5545C15.2349 15.5545 16.452 15.8485 17.5507 16.4122C18.6493 16.9759 19.598 17.7932 20.3181 18.7963Z" fill="#252D3B"/>
</svg>
