<svg width="24" height="24" viewBox="0 0 24 24" fill="none" xmlns="http://www.w3.org/2000/svg">
<path d="M21.586 1H2.4119C2.1407 0.999774 1.87519 1.07575 1.64715 1.21882C1.41911 1.36189 1.23822 1.566 1.12613 1.8067C1.01404 2.04741 0.975511 2.3145 1.01515 2.57599C1.0548 2.83749 1.17093 3.08231 1.34965 3.28113L8.82913 11.6109C9.05408 11.8618 9.1779 12.1838 9.17757 12.517V19.2187C9.17757 19.3255 9.20306 19.4307 9.25203 19.5262C9.301 19.6217 9.3721 19.7047 9.45971 19.7687L13.6918 22.8625C13.7966 22.9391 13.9212 22.9858 14.0516 22.9972C14.1821 23.0087 14.3133 22.9845 14.4304 22.9274C14.5476 22.8703 14.6461 22.7825 14.715 22.6739C14.7838 22.5653 14.8203 22.4402 14.8203 22.3125V12.517C14.82 12.1838 14.9438 11.8618 15.1688 11.6109L22.6482 3.27975C23.4467 2.3915 22.7978 1 21.586 1Z" stroke="#252D3B" stroke-width="2" stroke-linecap="round"/>
</svg>
