<svg width="20" height="20" viewBox="0 0 20 20" fill="none" xmlns="http://www.w3.org/2000/svg">
<g clip-path="url(#clip0_39_1201)">
<path d="M17.4998 10.0001H18.3332M15.4165 4.58341L16.2498 3.75008M9.99984 2.50008V1.66675M4.58317 4.58341L3.74984 3.75008M2.49984 10.0001H1.6665M8.33317 18.3334H11.6665M14.1665 10.0001C14.1663 9.24892 13.963 8.51179 13.5782 7.86669C13.1934 7.22159 12.6413 6.69252 11.9805 6.33545C11.3196 5.97839 10.5745 5.80662 9.82402 5.83831C9.07353 5.87001 8.34557 6.10399 7.71716 6.51551C7.08876 6.92703 6.58329 7.50076 6.25423 8.17601C5.92518 8.85126 5.78479 9.60291 5.84791 10.3514C5.91103 11.0999 6.17532 11.8174 6.61281 12.428C7.0503 13.0386 7.64472 13.5196 8.33317 13.8201V15.8334H11.6665V13.8201C12.4097 13.4957 13.0422 12.9615 13.4862 12.2829C13.9303 11.6044 14.1667 10.811 14.1665 10.0001Z" stroke="#A887BD" stroke-width="2" stroke-linecap="round" stroke-linejoin="round"/>
</g>
<defs>
<clipPath id="clip0_39_1201">
<rect width="20" height="20" fill="white"/>
</clipPath>
</defs>
</svg>
