<svg width="16" height="16" viewBox="0 0 16 16" fill="none" xmlns="http://www.w3.org/2000/svg">
<g clip-path="url(#clip0_105_453)">
<path d="M13.9997 8.00004H14.6663M12.333 3.66671L12.9997 3.00004M7.99967 2.00004V1.33337M3.66634 3.66671L2.99967 3.00004M1.99967 8.00004H1.33301M6.66634 14.6667H9.33301M11.333 8.00004C11.3328 7.39911 11.1702 6.80941 10.8624 6.29333C10.5545 5.77725 10.1129 5.35399 9.58418 5.06834C9.05549 4.78269 8.45941 4.64527 7.85902 4.67063C7.25863 4.69598 6.67626 4.88317 6.17354 5.21238C5.67081 5.5416 5.26643 6.00059 5.00319 6.54079C4.73995 7.08099 4.62763 7.6823 4.67813 8.2811C4.72863 8.8799 4.94006 9.45392 5.29005 9.9424C5.64005 10.4309 6.11558 10.8157 6.66634 11.056V12.6667H9.33301V11.056C9.9276 10.7965 10.4335 10.3692 10.7888 9.82633C11.1441 9.2835 11.3332 8.64879 11.333 8.00004Z" stroke="#252D3B" stroke-width="2" stroke-linecap="round" stroke-linejoin="round"/>
</g>
<defs>
<clipPath id="clip0_105_453">
<rect width="16" height="16" fill="white"/>
</clipPath>
</defs>
</svg>
