<svg width="18" height="18" viewBox="0 0 18 18" fill="none" xmlns="http://www.w3.org/2000/svg">
<path d="M18 0C14.3715 0.132037 11.4289 0.909455 9.17933 2.10791L8.05539 3.96912L7.86596 2.9081C7.46418 3.18766 7.09122 3.48301 6.74798 3.79214L6.18784 5.49397L5.99593 4.54391C4.44562 6.26263 3.692 8.31559 3.74814 10.4322C5.55105 6.89456 8.79779 3.90862 11.8323 2.07959L12.2029 2.68274C9.33062 4.41395 6.23857 7.26031 4.49184 10.5479H4.95545C5.70982 10.094 6.44894 9.53357 7.18294 8.9073L6.02812 8.96754L8.0959 8.09532C9.88362 6.44724 11.6605 4.50834 13.5616 2.87275L12.6284 2.67674L14.7832 1.88247C15.8073 1.1088 16.8732 0.453179 18 0ZM1.31806 11.2536V12.4021H6.4465V11.2536H1.31806ZM2.09516 13.1079L0.849719 14.1914L0 17.4004L0.554148 18H7.313L7.86829 17.4004L7.01857 14.1914L5.83987 13.1079L2.09516 13.1079Z" fill="#38445A"/>
</svg>
