<svg width="16" height="12" viewBox="0 0 16 12" fill="none" xmlns="http://www.w3.org/2000/svg">
<g clip-path="url(#clip0_39_1247)">
<path d="M14.9875 9.18011L12.4536 7.31788L10.5046 6.7261C11.1536 6.04786 11.5013 5.23871 11.5 4.40956C11.5 2.18072 9.03272 0.367432 6 0.367432C2.96728 0.367432 0.5 2.18072 0.5 4.40956C0.5 6.63841 2.96728 8.4517 6 8.4517C7.13801 8.45266 8.24809 8.19272 9.17559 7.70811L9.97872 9.13663L12.5125 10.999C12.675 11.1184 12.8679 11.2131 13.0802 11.2778C13.2926 11.3424 13.5201 11.3757 13.7499 11.3757C13.9798 11.3757 14.2073 11.3424 14.4197 11.2778C14.632 11.2132 14.8249 11.1184 14.9874 10.999C15.1499 10.8796 15.2788 10.7378 15.3668 10.5818C15.4548 10.4257 15.5 10.2585 15.5 10.0896C15.5 9.92067 15.4548 9.75342 15.3668 9.59738C15.2789 9.44133 15.15 9.29954 14.9875 9.18011ZM1.5 4.40956C1.5 2.58601 3.51875 1.10237 6 1.10237C8.48125 1.10237 10.5 2.58601 10.5 4.40956C10.5 6.23312 8.48125 7.71677 6 7.71677C3.51875 7.71677 1.5 6.23312 1.5 4.40956ZM14.2803 10.4793C14.1396 10.5825 13.9488 10.6405 13.75 10.6405C13.5512 10.6405 13.3604 10.5825 13.2197 10.4793L10.8268 8.72068L10.0801 7.39241L11.8875 7.94117L14.2804 9.69978C14.4208 9.80324 14.4997 9.94341 14.4997 10.0895C14.4996 10.2357 14.4208 10.3758 14.2803 10.4793Z" fill="#38445A"/>
</g>
<defs>
<clipPath id="clip0_39_1247">
<rect width="16" height="11.7589" fill="white"/>
</clipPath>
</defs>
</svg>
