<svg width="22" height="22" viewBox="0 0 22 22" fill="none" xmlns="http://www.w3.org/2000/svg">
<path d="M13.2918 3.12492C13.2918 3.73271 13.0504 4.3156 12.6206 4.74537C12.1908 5.17514 11.608 5.41659 11.0002 5.41659C10.3924 5.41659 9.80948 5.17514 9.37971 4.74537C8.94994 4.3156 8.7085 3.73271 8.7085 3.12492C8.7085 2.51713 8.94994 1.93424 9.37971 1.50447C9.80948 1.07469 10.3924 0.833252 11.0002 0.833252C11.608 0.833252 12.1908 1.07469 12.6206 1.50447C13.0504 1.93424 13.2918 2.51713 13.2918 3.12492Z" stroke="#A887BD" stroke-width="1.5"/>
<path d="M19.25 14.5833L18.1885 14.2258C17.9803 14.1555 17.7824 14.0578 17.6 13.9353L17.5074 13.872C17.1967 13.6618 16.9424 13.3785 16.7667 13.047C16.5911 12.7155 16.4995 12.346 16.5 11.9708C16.5 9.73692 14.9013 7.83026 12.7206 7.46267L11.9048 7.32517C11.4583 7.25001 10.5417 7.25001 10.0952 7.32517L9.2785 7.46267C7.09775 7.83026 5.5 9.73692 5.5 11.9708C5.50052 12.346 5.40893 12.7155 5.23328 13.047C5.05763 13.3785 4.80329 13.6618 4.49258 13.872L4.40092 13.9353C4.21697 14.0581 4.0205 14.155 3.8115 14.2258L2.75 14.5833" stroke="#A887BD" stroke-width="1.5" stroke-linecap="round" stroke-linejoin="round"/>
<path d="M8.7084 13.6665L7.86048 14.7968C7.72573 14.9764 7.65882 15.0672 7.58182 15.146C7.39394 15.3424 7.16474 15.4946 6.91082 15.5915C6.80815 15.6309 6.69998 15.6584 6.47998 15.7134L4.8364 16.1241C4.47125 16.216 4.15225 16.4382 3.9394 16.7488C3.72654 17.0594 3.63449 17.4371 3.68054 17.8108C3.7266 18.1846 3.90759 18.5286 4.18948 18.7782C4.47138 19.0279 4.83477 19.166 5.21132 19.1665H5.8374C7.40398 19.1665 8.92657 18.6587 10.1797 17.7191L11.9167 16.4165M13.2917 13.6665L13.9582 14.5548C14.2726 14.9746 14.4302 15.1845 14.6347 15.3394C14.6958 15.3859 14.7599 15.4286 14.8272 15.4678C15.049 15.5961 15.3038 15.6593 15.8126 15.7868L17.1637 16.1241C17.5289 16.216 17.8479 16.4382 18.0607 16.7488C18.2736 17.0594 18.3656 17.4371 18.3196 17.8108C18.2735 18.1846 18.0925 18.5286 17.8106 18.7782C17.5288 19.0279 17.1654 19.166 16.7888 19.1665H15.9299C15.4138 19.1665 15.1562 19.1665 14.9005 19.1518C14.1457 19.1096 13.3991 18.9741 12.6776 18.7485C12.4328 18.6724 12.1917 18.5826 11.7096 18.4011L10.0834 17.7915" stroke="#A887BD" stroke-width="1.5" stroke-linecap="round" stroke-linejoin="round"/>
</svg>
