<svg width="18" height="18" viewBox="0 0 18 18" fill="none" xmlns="http://www.w3.org/2000/svg">
<path d="M8.74979 2.25C5.92229 2.25 3.64229 4.4625 3.49979 7.245L2.05979 9.1425C1.87979 9.375 2.05979 9.75 2.37479 9.75H3.49979V12C3.49979 12.8325 4.16729 13.5 4.99979 13.5H5.74979V15.75H10.9998V12.2325C12.7773 11.3925 13.9998 9.6 13.9998 7.5C13.9998 4.605 11.6598 2.25 8.74979 2.25ZM9.49979 10.5H7.99979V9H9.49979V10.5ZM10.8123 6.6075C10.5948 6.9075 10.3173 7.125 9.97979 7.305C9.79229 7.425 9.66479 7.5525 9.59729 7.695C9.52979 7.83 9.49979 8.0175 9.49979 8.25H7.99979C7.99979 7.875 8.08229 7.56 8.23229 7.365C8.37479 7.1625 8.63729 6.9375 9.01979 6.6825C9.21479 6.5625 9.37229 6.4125 9.47729 6.24C9.59729 6.0675 9.64979 5.865 9.64979 5.625C9.64979 5.4 9.58979 5.205 9.45479 5.0625C9.31979 4.9275 9.12479 4.8525 8.89229 4.8525C8.71191 4.84859 8.53617 4.90983 8.39729 5.025C8.26229 5.145 8.19479 5.3175 8.18729 5.5425H6.73979L6.73229 5.52C6.72479 4.9275 6.91979 4.5 7.30979 4.1925C7.71479 3.9 8.23979 3.75 8.89229 3.75C9.58979 3.75 10.1373 3.9225 10.5348 4.26C10.9398 4.5975 11.1423 5.055 11.1423 5.625C11.1423 6 11.0298 6.3075 10.8123 6.6075Z" fill="#38445A"/>
</svg>
