<svg width="19" height="19" viewBox="0 0 19 19" fill="none" xmlns="http://www.w3.org/2000/svg">
<path fill-rule="evenodd" clip-rule="evenodd" d="M11.4594 0.717853C10.9458 1.36722 10.6343 2.13279 10.5584 2.93244C10.4824 3.73208 10.6449 4.53563 11.0284 5.25688C11.4119 5.97813 12.0018 6.58987 12.735 7.02647C13.4682 7.46307 14.3169 7.70806 15.1902 7.73516V7.74443C15.2039 7.91117 15.2177 8.08211 15.236 8.24717C15.4533 10.1394 15.9483 11.4388 16.424 12.2918C16.7403 12.8603 17.051 13.2375 17.271 13.4657C17.3676 13.5664 17.4717 13.6606 17.5827 13.7478L17.5919 13.7529C17.7095 13.8313 17.797 13.942 17.8419 14.0689C17.8868 14.1959 17.8868 14.3327 17.8418 14.4597C17.7967 14.5866 17.7091 14.6972 17.5914 14.7755C17.4737 14.8538 17.332 14.8959 17.1867 14.8956H0.686688C0.541673 14.8955 0.400426 14.8532 0.283145 14.7748C0.165864 14.6965 0.0785563 14.5861 0.0337066 14.4594C-0.011143 14.3327 -0.0112376 14.1962 0.0334365 14.0695C0.0781107 13.9427 0.165266 13.8322 0.282438 13.7537L0.289771 13.7478L0.348438 13.7024C0.403438 13.6569 0.492354 13.5803 0.602354 13.4657C0.822354 13.2384 1.1331 12.8611 1.44935 12.2927C2.08185 11.1567 2.74919 9.23665 2.74919 6.17979C2.74919 4.59577 3.39085 3.06903 4.54585 1.93723C5.70269 0.803748 7.28119 0.158691 8.93669 0.158691C9.28747 0.158691 9.63366 0.187042 9.97527 0.243745C10.1934 0.279955 10.9084 0.484588 11.4594 0.717853Z" fill="#A887BD"/>
<path fill-rule="evenodd" clip-rule="evenodd" d="M11.916 3.31661C11.916 2.47908 12.2782 1.67585 12.9229 1.08362C13.5675 0.4914 14.4419 0.158691 15.3535 0.158691C16.2652 0.158691 17.1396 0.4914 17.7842 1.08362C18.4289 1.67585 18.791 2.47908 18.791 3.31661C18.791 4.15414 18.4289 4.95737 17.7842 5.54959C17.1396 6.14182 16.2652 6.47452 15.3535 6.47452C14.4419 6.47452 13.5675 6.14182 12.9229 5.54959C12.2782 4.95737 11.916 4.15414 11.916 3.31661ZM7.00638 16.2439C7.08451 16.2023 7.17078 16.1752 7.26028 16.1643C7.34978 16.1533 7.44076 16.1587 7.52801 16.18C7.61526 16.2014 7.69707 16.2383 7.76879 16.2887C7.8405 16.3391 7.90071 16.402 7.94596 16.4738C8.04672 16.6332 8.19128 16.7655 8.36518 16.8575C8.53908 16.9494 8.73622 16.9978 8.93688 16.9978C9.13754 16.9978 9.33468 16.9494 9.50858 16.8575C9.68248 16.7655 9.82704 16.6332 9.9278 16.4738C9.97312 16.402 10.0334 16.3391 10.1052 16.2887C10.1769 16.2384 10.2588 16.2015 10.3461 16.1802C10.4334 16.1589 10.5244 16.1535 10.6139 16.1645C10.7034 16.1755 10.7897 16.2026 10.8678 16.2443C10.946 16.2859 11.0144 16.3413 11.0692 16.4072C11.1241 16.4731 11.1642 16.5484 11.1874 16.6285C11.2106 16.7087 11.2164 16.7923 11.2044 16.8746C11.1924 16.9568 11.163 17.0361 11.1176 17.1079C10.8961 17.4589 10.578 17.7503 10.1953 17.9528C9.81253 18.1554 9.37858 18.262 8.93688 18.262C8.49518 18.262 8.06123 18.1554 7.6785 17.9528C7.29577 17.7503 6.9777 17.4589 6.75613 17.1079C6.71072 17.0361 6.68117 16.9567 6.66917 16.8744C6.65717 16.7921 6.66296 16.7084 6.6862 16.6282C6.70945 16.5479 6.74969 16.4727 6.80463 16.4067C6.85957 16.3408 6.92813 16.2854 7.00638 16.2439Z" fill="#A887BD"/>
</svg>
