<svg width="20" height="20" viewBox="0 0 20 20" fill="none" xmlns="http://www.w3.org/2000/svg">
<path d="M3.3475 14.8675C3.47725 14.9977 3.57667 15.155 3.63868 15.3281C3.70069 15.5011 3.72376 15.6857 3.70625 15.8687C3.61818 16.7157 3.45164 17.5526 3.20875 18.3687C4.9525 17.965 6.0175 17.4975 6.50125 17.2525C6.77563 17.1135 7.09161 17.0806 7.38875 17.16C8.24037 17.3879 9.1184 17.5023 10 17.5C14.995 17.5 18.75 13.9912 18.75 10C18.75 6.00875 14.995 2.5 10 2.5C5.005 2.5 1.25 6.01 1.25 10C1.25 11.835 2.02125 13.5375 3.3475 14.8675ZM2.73125 19.7487C2.43507 19.8074 2.13795 19.8611 1.84 19.91C1.59 19.95 1.4 19.69 1.49875 19.4575C1.60944 19.1956 1.71117 18.9301 1.80375 18.6612L1.8075 18.6487C2.1175 17.7487 2.37 16.7137 2.4625 15.75C0.92875 14.2125 0 12.2 0 10C0 5.1675 4.4775 1.25 10 1.25C15.5225 1.25 20 5.1675 20 10C20 14.8325 15.5225 18.75 10 18.75C9.00951 18.7522 8.02306 18.6236 7.06625 18.3675C6.41625 18.6962 5.0175 19.295 2.73125 19.7487Z" fill="#A887BD"/>
<path d="M8.83253 8.4501C8.58903 8.07091 8.22905 7.78099 7.80667 7.62392C7.38429 7.46685 6.92234 7.45112 6.49026 7.57908C6.05817 7.70704 5.67929 7.97179 5.41056 8.33353C5.14183 8.69528 4.99777 9.13447 5.00003 9.5851C5.00025 9.95827 5.10068 10.3245 5.29083 10.6456C5.48098 10.9667 5.75386 11.2308 6.08097 11.4104C6.40809 11.59 6.77743 11.6785 7.1504 11.6665C7.52338 11.6546 7.88631 11.5427 8.20128 11.3426C8.03753 11.8288 7.73253 12.3476 7.23003 12.8676C7.13389 12.9671 7.08119 13.1006 7.08354 13.2389C7.0847 13.3074 7.09933 13.375 7.12661 13.4378C7.15389 13.5007 7.19328 13.5575 7.24253 13.6051C7.29177 13.6527 7.34991 13.6901 7.41363 13.7153C7.47734 13.7404 7.54538 13.7528 7.61387 13.7516C7.75217 13.7492 7.88389 13.6921 7.98003 13.5926C9.83753 11.6676 9.59628 9.5751 8.83253 8.4526V8.4501ZM13.8325 8.4501C13.589 8.07091 13.229 7.78099 12.8067 7.62392C12.3843 7.46685 11.9223 7.45112 11.4903 7.57908C11.0582 7.70704 10.6793 7.97179 10.4106 8.33353C10.1418 8.69528 9.99777 9.13447 10 9.5851C10.0003 9.95827 10.1007 10.3245 10.2908 10.6456C10.481 10.9667 10.7539 11.2308 11.081 11.4104C11.4081 11.59 11.7774 11.6785 12.1504 11.6665C12.5234 11.6546 12.8863 11.5427 13.2013 11.3426C13.0375 11.8288 12.7325 12.3476 12.23 12.8676C12.1824 12.9168 12.145 12.975 12.1198 13.0387C12.0947 13.1024 12.0824 13.1705 12.0835 13.2389C12.0847 13.3074 12.0993 13.375 12.1266 13.4378C12.1539 13.5007 12.1933 13.5575 12.2425 13.6051C12.2918 13.6527 12.3499 13.6901 12.4136 13.7153C12.4773 13.7404 12.5454 13.7528 12.6139 13.7516C12.6823 13.7504 12.7499 13.7358 12.8128 13.7085C12.8756 13.6812 12.9324 13.6418 12.98 13.5926C14.8375 11.6676 14.5963 9.5751 13.8325 8.4526V8.4501Z" fill="#A887BD"/>
</svg>
