<svg width="12" height="12" viewBox="0 0 12 12" fill="none" xmlns="http://www.w3.org/2000/svg">
<path d="M7.4525 0C6.99523 0 6.55355 0.0185458 6.13525 0.0643805L5.70395 1.2068L5.57664 0.145982C5.51169 0.158169 5.44674 0.170886 5.38178 0.184928C5.14535 0.236327 4.98947 0.376215 4.85436 0.578894C4.71926 0.781574 4.62313 1.04254 4.53999 1.28364C4.31135 1.94863 4.12948 2.65073 3.98399 3.36607C4.13987 3.50118 4.29576 3.63895 4.44905 3.77407L5.24668 3.30778L6.12485 3.99927L7.47329 3.47734L9.05815 4.12644L8.88148 4.56889L7.46809 3.99132L6.04691 4.53975L5.21031 3.88005L4.82318 4.10525C5.33242 4.56359 5.82607 5.01664 6.29113 5.46174L6.65487 5.29218L7.53564 5.71873L8.34626 5.37166L8.97501 5.98897L8.65284 6.3334L8.24234 5.93333L7.52525 6.24332L6.66786 5.82471C6.84714 6.00222 7.02121 6.17443 7.19009 6.34664L7.23426 6.39433L7.74089 8.41582L7.53824 8.26481L6.16123 8.27541L5.17134 7.80381L4.06972 8.19063L3.91903 7.74023L5.19732 7.28983L6.26515 7.79851L6.90689 7.79321L5.07001 6.42347C4.55817 6.54535 4.04634 6.49766 3.56049 6.32545C3.45137 7.50178 3.4072 8.59598 3.37862 9.47029C3.36823 9.75377 3.44877 10.0796 3.57348 10.3313C3.70079 10.583 3.87746 10.7393 3.9632 10.7579C4.0983 10.7897 4.45685 10.8427 4.9427 10.893L5.26487 9.85975L5.76111 10.9645C6.195 10.9963 6.67046 11.0175 7.15112 11.0228C7.88379 11.0308 8.63465 10.999 9.28159 10.8983C9.6921 10.8374 10.0506 10.7393 10.339 10.6228C10.0325 10.4877 9.77783 10.3419 9.58297 10.183C9.29458 9.94718 9.11011 9.67164 9.1335 9.36431V9.36961C9.2738 6.81559 9.4141 4.36754 9.92073 1.79232L9.92333 1.78172L9.92593 1.77113C10.0636 1.29688 10.391 0.715074 10.8639 0.291964C10.5027 0.237386 10.1208 0.185988 9.72847 0.142008L9.14909 0.812307L9.09193 0.0784223C8.59828 0.0349721 8.09424 0.00662353 7.60059 0.00105978H7.4525V0ZM11.3107 0.541538C11.1886 0.639301 11.0717 0.754285 10.9652 0.878807C11.2796 1.09553 11.5212 1.49824 11.5316 1.85856C11.5394 2.06521 11.4822 2.25332 11.3315 2.42553C11.1808 2.59509 10.9262 2.75405 10.5105 2.84413L10.6092 3.31043C11.0925 3.20445 11.4484 3.00575 11.6797 2.74346C11.9135 2.48116 12.0096 2.15529 11.9992 1.84266C11.9837 1.33132 11.7109 0.846749 11.3107 0.541538ZM0.00987296 0.634797C0.00363742 0.677452 0 0.725671 0 0.783693C0.00259814 0.987432 0.0527422 1.26509 0.151471 1.58302C0.240068 1.8665 0.366338 2.17913 0.524304 2.50501C0.800487 2.36459 1.05926 2.21358 1.26244 2.02547C1.1476 2.35664 0.998725 2.67987 0.779182 2.9925C0.886745 3.18326 1.0034 3.37401 1.12863 3.56212C1.40507 3.4217 1.66697 3.2177 1.8956 2.87063C1.80986 3.29453 1.67554 3.68134 1.42092 3.97808C1.59058 4.20328 1.77167 4.42318 1.96004 4.62718C2.18607 4.38079 2.36535 4.07081 2.49785 3.70254C2.59658 4.19268 2.5654 4.63778 2.34976 5.01134C2.55761 5.2021 2.77325 5.37431 2.9941 5.51738C3.15258 5.14646 3.22533 4.70666 3.21494 4.20063C3.45397 4.82853 3.50853 5.33722 3.46436 5.77702C3.98918 6.02077 4.5244 6.09495 5.05702 5.93863L5.16614 5.90419L6.96665 7.24479L6.81336 6.64073C4.91672 4.71196 2.25622 2.48911 0.00987296 0.634797ZM7.47588 2.01222L8.33847 2.37784L9.15168 2.11555L9.29198 2.57124L8.31768 2.88652L7.44471 2.51561L6.69644 2.73021L6.57173 2.26921L7.47588 2.01222ZM10.2637 8.27011C10.2455 8.27011 10.2299 8.27276 10.2117 8.27276C10.1208 8.27541 10.0247 8.286 9.92333 8.3072L10.0117 8.77349C10.3286 8.71256 10.5313 8.7629 10.6482 8.83973C10.7625 8.91656 10.8119 9.01989 10.8145 9.1709C10.8171 9.4173 10.6326 9.78027 10.2091 10.032C10.3494 10.1088 10.5183 10.1883 10.7106 10.2625C11.0847 9.95513 11.2848 9.55242 11.2822 9.1656C11.2796 8.88212 11.1471 8.60393 10.9028 8.43967C10.7288 8.32574 10.5131 8.26746 10.2637 8.27011Z" fill="#38445A"/>
</svg>
